<?xml version="1.0" encoding="UTF-8" standalone="no"?>
<!--Generator: Apple Native CoreSVG 341-->

<svg
   version="1.1"
   viewBox="0 0 3300 2200"
   id="svg33"
   xmlns="http://www.w3.org/2000/svg"
   xmlns:svg="http://www.w3.org/2000/svg">
  <defs
     id="defs33" />
  <!--glyph: "", point size: 100.0, font version: "20.0d10e1", template writer version: "138.0.0"-->
  <style
     id="style1">.SFSymbolsPreviewWireframe {fill:none;opacity:1.0;stroke:black;stroke-width:0.5}
</style>
<g
     id="Notes"
     transform="translate(0.6610577,-2.8094952)">
    <rect
       height="2200"
       id="artboard"
       style="opacity:1;fill:#ffffff"
       width="3300"
       x="0"
       y="0" />
    <line
       style="opacity:1;fill:none;stroke:#000000;stroke-width:0.5"
       x1="263"
       x2="3036"
       y1="292"
       y2="292"
       id="line1" />
    <text
       style="font-weight:bold;font-size:13px;font-family:sans-serif;fill:#000000;stroke:none"
       transform="translate(263,322)"
       id="text1">Weight/Scale Variations</text>
    <text
       style="font-size:13px;font-family:sans-serif;text-anchor:middle;fill:#000000;stroke:none"
       transform="translate(559.711,322)"
       id="text2">Ultralight</text>
    <text
       style="font-size:13px;font-family:sans-serif;text-anchor:middle;fill:#000000;stroke:none"
       transform="translate(856.422,322)"
       id="text3">Thin</text>
    <text
       style="font-size:13px;font-family:sans-serif;text-anchor:middle;fill:#000000;stroke:none"
       transform="translate(1153.13,322)"
       id="text4">Light</text>
    <text
       style="font-size:13px;font-family:sans-serif;text-anchor:middle;fill:#000000;stroke:none"
       transform="translate(1449.84,322)"
       id="text5">Regular</text>
    <text
       style="font-size:13px;font-family:sans-serif;text-anchor:middle;fill:#000000;stroke:none"
       transform="translate(1746.56,322)"
       id="text6">Medium</text>
    <text
       style="font-size:13px;font-family:sans-serif;text-anchor:middle;fill:#000000;stroke:none"
       transform="translate(2043.27,322)"
       id="text7">Semibold</text>
    <text
       style="font-size:13px;font-family:sans-serif;text-anchor:middle;fill:#000000;stroke:none"
       transform="translate(2339.98,322)"
       id="text8">Bold</text>
    <text
       style="font-size:13px;font-family:sans-serif;text-anchor:middle;fill:#000000;stroke:none"
       transform="translate(2636.69,322)"
       id="text9">Heavy</text>
    <text
       style="font-size:13px;font-family:sans-serif;text-anchor:middle;fill:#000000;stroke:none"
       transform="translate(2933.4,322)"
       id="text10">Black</text>
    <line
       style="opacity:1;fill:none;stroke:#000000;stroke-width:0.5"
       x1="263"
       x2="3036"
       y1="1903"
       y2="1903"
       id="line10" />
    <g
       transform="matrix(0.2,0,0,0.2,263,1933)"
       id="g10">
      <path
         d="m 46.2402,4.15039 c 21.7773,0 39.4531,-17.627 39.4531,-39.4043 0,-21.7773 -17.6758,-39.4043 -39.4531,-39.4043 -21.7285,0 -39.4043,17.627 -39.4043,39.4043 0,21.7773 17.6758,39.4043 39.4043,39.4043 z m 0,-7.42188 c -17.6758,0 -31.9336,-14.3066 -31.9336,-31.9824 0,-17.6758 14.2578,-31.9824 31.9336,-31.9824 17.6758,0 31.9824,14.3066 31.9824,31.9824 0,17.6758 -14.3066,31.9824 -31.9824,31.9824 z m -17.9688,-31.9824 c 0,2.14844 1.51367,3.61328 3.75977,3.61328 h 10.498 v 10.5957 c 0,2.19727 1.46484,3.71094 3.61328,3.71094 2.24609,0 3.71094,-1.51367 3.71094,-3.71094 v -10.5957 h 10.5957 c 2.19727,0 3.71094,-1.46484 3.71094,-3.61328 0,-2.19727 -1.51367,-3.71094 -3.71094,-3.71094 h -10.5957 v -10.5469 c 0,-2.24609 -1.46484,-3.75977 -3.71094,-3.75977 -2.14844,0 -3.61328,1.51367 -3.61328,3.75977 v 10.5469 h -10.498 c -2.24609,0 -3.75977,1.51367 -3.75977,3.71094 z"
         id="path10" />
    </g>
    <g
       transform="matrix(0.2,0,0,0.2,281.506,1933)"
       id="g11">
      <path
         d="m 58.5449,14.5508 c 27.4902,0 49.8047,-22.3145 49.8047,-49.8047 0,-27.4902 -22.3145,-49.8047 -49.8047,-49.8047 -27.4902,0 -49.8047,22.3145 -49.8047,49.8047 0,27.4902 22.3145,49.8047 49.8047,49.8047 z m 0,-8.30078 c -22.9492,0 -41.5039,-18.5547 -41.5039,-41.5039 0,-22.9492 18.5547,-41.5039 41.5039,-41.5039 22.9492,0 41.5039,18.5547 41.5039,41.5039 0,22.9492 -18.5547,41.5039 -41.5039,41.5039 z m -22.6562,-41.5039 c 0,2.39258 1.66016,4.00391 4.15039,4.00391 h 14.3555 v 14.4043 c 0,2.44141 1.66016,4.15039 4.05273,4.15039 2.44141,0 4.15039,-1.66016 4.15039,-4.15039 v -14.4043 h 14.4043 c 2.44141,0 4.15039,-1.61133 4.15039,-4.00391 0,-2.44141 -1.70898,-4.15039 -4.15039,-4.15039 h -14.4043 v -14.3555 c 0,-2.49023 -1.70898,-4.19922 -4.15039,-4.19922 -2.39258,0 -4.05273,1.70898 -4.05273,4.19922 v 14.3555 h -14.3555 c -2.49023,0 -4.15039,1.70898 -4.15039,4.15039 z"
         id="path11" />
    </g>
    <g
       transform="matrix(0.2,0,0,0.2,304.924,1933)"
       id="g12">
      <path
         d="m 74.8535,28.3203 c 35.1074,0 63.623,-28.4668 63.623,-63.5742 0,-35.1074 -28.5156,-63.623 -63.623,-63.623 -35.1074,0 -63.5742,28.5156 -63.5742,63.623 0,35.1074 28.4668,63.5742 63.5742,63.5742 z m 0,-9.08203 c -30.127,0 -54.4922,-24.3652 -54.4922,-54.4922 0,-30.127 24.3652,-54.4922 54.4922,-54.4922 30.127,0 54.4922,24.3652 54.4922,54.4922 0,30.127 -24.3652,54.4922 -54.4922,54.4922 z m -28.8574,-54.4922 c 0,2.58789 1.85547,4.39453 4.58984,4.39453 h 19.7266 v 19.7754 c 0,2.68555 1.85547,4.58984 4.44336,4.58984 2.68555,0 4.54102,-1.85547 4.54102,-4.58984 v -19.7754 h 19.7754 c 2.68555,0 4.58984,-1.80664 4.58984,-4.39453 0,-2.73438 -1.85547,-4.58984 -4.58984,-4.58984 h -19.7754 v -19.7266 c 0,-2.73438 -1.85547,-4.63867 -4.54102,-4.63867 -2.58789,0 -4.44336,1.9043 -4.44336,4.63867 v 19.7266 h -19.7266 c -2.73438,0 -4.58984,1.85547 -4.58984,4.58984 z"
         id="path12" />
    </g>
    <text
       style="font-weight:bold;font-size:13px;font-family:sans-serif;fill:#000000;stroke:none"
       transform="translate(263,1953)"
       id="text12">Design Variations</text>
    <text
       style="font-size:13px;font-family:sans-serif;fill:#000000;stroke:none"
       transform="translate(263,1971)"
       id="text13">Symbols are supported in up to nine weights and three scales.</text>
    <text
       style="font-size:13px;font-family:sans-serif;fill:#000000;stroke:none"
       transform="translate(263,1989)"
       id="text14">For optimal layout with text and other symbols, vertically align</text>
    <text
       style="font-size:13px;font-family:sans-serif;fill:#000000;stroke:none"
       transform="translate(263,2007)"
       id="text15">symbols with the adjacent text.</text>
    <line
       style="opacity:1;fill:none;stroke:#00aeef;stroke-width:0.5"
       x1="776"
       x2="776"
       y1="1919"
       y2="1933"
       id="line15" />
    <g
       transform="matrix(0.2,0,0,0.2,776,1933)"
       id="g15">
      <path
         d="m 16.5527,0.78125 c 2.58789,0 3.85742,-0.976562 4.78516,-3.71094 l 6.29883,-17.2363 h 28.8086 l 6.29883,17.2363 c 0.927734,2.73438 2.19727,3.71094 4.73633,3.71094 2.58789,0 4.24805,-1.5625 4.24805,-4.00391 0,-0.830078 -0.146484,-1.61133 -0.537109,-2.63672 l -22.9004,-60.9863 c -1.12305,-2.97852 -3.125,-4.49219 -6.25,-4.49219 -3.02734,0 -5.07812,1.46484 -6.15234,4.44336 l -22.9004,61.084 c -0.390625,1.02539 -0.537109,1.80664 -0.537109,2.63672 0,2.44141 1.5625,3.95508 4.10156,3.95508 z m 13.4766,-28.3691 11.8652,-32.8613 h 0.244141 l 11.8652,32.8613 z"
         id="path15" />
    </g>
    <line
       style="opacity:1;fill:none;stroke:#00aeef;stroke-width:0.5"
       x1="792.836"
       x2="792.836"
       y1="1919"
       y2="1933"
       id="line16" />
    <text
       style="font-weight:bold;font-size:13px;font-family:sans-serif;fill:#000000;stroke:none"
       transform="translate(776,1953)"
       id="text16">Margins</text>
    <text
       style="font-size:13px;font-family:sans-serif;fill:#000000;stroke:none"
       transform="translate(776,1971)"
       id="text17">Leading and trailing margins on the left and right side of each symbol</text>
    <text
       style="font-size:13px;font-family:sans-serif;fill:#000000;stroke:none"
       transform="translate(776,1989)"
       id="text18">can be adjusted by modifying the x-location of the margin guidelines.</text>
    <text
       style="font-size:13px;font-family:sans-serif;fill:#000000;stroke:none"
       transform="translate(776,2007)"
       id="text19">Modifications are automatically applied proportionally to all</text>
    <text
       style="font-size:13px;font-family:sans-serif;fill:#000000;stroke:none"
       transform="translate(776,2025)"
       id="text20">scales and weights.</text>
    <g
       transform="matrix(0.2,0,0,0.2,1289,1933)"
       id="g20">
      <path
         d="m 14.209,9.32617 8.49609,8.54492 c 4.29688,4.3457 9.22852,4.05273 13.8672,-1.07422 l 53.4668,-58.9355 -4.83398,-4.88281 -53.0762,58.3984 c -1.75781,2.00195 -3.41797,2.49023 -5.76172,0.146484 l -5.85938,-5.81055 c -2.34375,-2.29492 -1.80664,-4.00391 0.195312,-5.81055 l 57.373,-54.0039 -4.88281,-4.83398 -57.959,54.4434 c -4.93164,4.58984 -5.32227,9.47266 -1.02539,13.8184 z m 32.0801,-90.9668 c -2.09961,2.05078 -2.24609,4.93164 -1.07422,6.88477 1.17188,1.80664 3.4668,2.97852 6.68945,2.14844 7.32422,-1.70898 14.9414,-2.00195 22.0703,2.68555 l -2.92969,7.27539 c -1.70898,4.15039 -0.830078,7.08008 1.85547,9.81445 l 11.4746,11.5723 c 2.44141,2.44141 4.49219,2.53906 7.32422,2.05078 l 5.32227,-0.976562 3.32031,3.36914 -0.19531,2.7832 c -0.195314,2.49023 0.43945,4.39453 2.88086,6.78711 l 3.80859,3.71094 c 2.39258,2.39258 5.46875,2.53906 7.8125,0.195312 l 14.5508,-14.5996 c 2.34375,-2.34375 2.24609,-5.32227 -0.14649,-7.71484 l -3.85742,-3.80859 c -2.39258,-2.39258 -4.24805,-3.17383 -6.64062,-2.97852 l -2.88086,0.244141 -3.22266,-3.17383 1.2207,-5.61523 c 0.63477,-2.83203 -0.14648,-5.0293 -3.07617,-7.95898 l -10.986296,-10.9375 c -16.6992,-16.6016 -38.8672,-16.2109 -53.3203,-1.75781 z m 7.4707,1.85547 c 12.1582,-8.88672 28.6133,-7.37305 39.7461,3.75977 l 12.1582,12.0605 c 1.17188,1.17188 1.36719,2.09961 1.02539,3.80859 l -1.61133,7.42188 7.51953,7.42188 4.93164,-0.292969 c 1.26953,-0.04883 1.66016,0.04883 2.63672,1.02539 l 2.88086,2.88086 -12.207,12.207 -2.88086,-2.88086 c -0.97656,-0.976562 -1.12305,-1.36719 -1.07422,-2.68555 l 0.3418,-4.88281 -7.470703,-7.42188 -7.61719,1.26953 c -1.61133,0.341797 -2.34375,0.195312 -3.56445,-0.976562 l -10.0098,-10.0098 c -1.26953,-1.17188 -1.41602,-2.00195 -0.634766,-3.85742 l 4.39453,-10.4492 c -7.8125,-7.27539 -17.9688,-10.4004 -28.125,-7.42188 -0.78125,0.195312 -1.07422,-0.439453 -0.439453,-0.976562 z"
         id="path20" />
    </g>
    <text
       style="font-weight:bold;font-size:13px;font-family:sans-serif;fill:#000000;stroke:none"
       transform="translate(1289,1953)"
       id="text21">Exporting</text>
    <text
       style="font-size:13px;font-family:sans-serif;fill:#000000;stroke:none"
       transform="translate(1289,1971)"
       id="text22">Symbols should be outlined when exporting to ensure the</text>
    <text
       style="font-size:13px;font-family:sans-serif;fill:#000000;stroke:none"
       transform="translate(1289,1989)"
       id="text23">design is preserved when submitting to Xcode.</text>
    <text
       id="template-version"
       style="font-size:13px;font-family:sans-serif;text-anchor:end;fill:#000000;stroke:none"
       transform="translate(3036,1933)">Template v.6.0</text>
    <text
       style="font-size:13px;font-family:sans-serif;text-anchor:end;fill:#000000;stroke:none"
       transform="translate(3036,1951)"
       id="text24">Requires Xcode 16 or greater</text>
    <text
       id="descriptive-name"
       style="font-size:13px;font-family:sans-serif;text-anchor:end;fill:#000000;stroke:none"
       transform="translate(3036,1969)">Generated from custom.circle</text>
    <text
       style="font-size:13px;font-family:sans-serif;text-anchor:end;fill:#000000;stroke:none"
       transform="translate(3036,1987)"
       id="text25">Typeset at 100.0 points</text>
    <text
       style="font-size:13px;font-family:sans-serif;fill:#000000;stroke:none"
       transform="translate(263,726)"
       id="text26">Small</text>
    <text
       style="font-size:13px;font-family:sans-serif;fill:#000000;stroke:none"
       transform="translate(263,1156)"
       id="text27">Medium</text>
    <text
       style="font-size:13px;font-family:sans-serif;fill:#000000;stroke:none"
       transform="translate(263,1586)"
       id="text28">Large</text>
  </g>
  <g
     id="Guides">
    <g
       id="H-reference"
       style="fill:#27AAE1;stroke:none;"
       transform="matrix(1 0 0 1 339 696)">
      <path
         d="M0.993654 0L3.63775 0L29.3281-67.1323L30.0303-67.1323L30.0303-70.459L28.1226-70.459ZM11.6885-24.4799L46.9815-24.4799L46.2315-26.7285L12.4385-26.7285ZM55.1196 0L57.7637 0L30.6382-70.459L29.4326-70.459L29.4326-67.1323Z"
         id="path28" />
    </g>
    <line
       id="Baseline-S"
       style="opacity:1;fill:none;stroke:#27aae1;stroke-width:0.5"
       x1="263"
       x2="3055"
       y1="695.99994"
       y2="695.99994" />
    <line
       id="Capline-S"
       style="opacity:1;fill:none;stroke:#27aae1;stroke-width:0.5"
       x1="263"
       x2="3055"
       y1="625.54089"
       y2="625.54089" />
    <g
       id="g29"
       style="fill:#27AAE1;stroke:none;"
       transform="matrix(1 0 0 1 339 1126)">
      <path
         d="M0.993654 0L3.63775 0L29.3281-67.1323L30.0303-67.1323L30.0303-70.459L28.1226-70.459ZM11.6885-24.4799L46.9815-24.4799L46.2315-26.7285L12.4385-26.7285ZM55.1196 0L57.7637 0L30.6382-70.459L29.4326-70.459L29.4326-67.1323Z"
         id="path29" />
    </g>
    <line
       id="Baseline-M"
       style="fill:none;stroke:#27AAE1;opacity:1;stroke-width:0.5;"
       x1="263"
       x2="3036"
       y1="1126"
       y2="1126" />
    <line
       id="Capline-M"
       style="fill:none;stroke:#27AAE1;opacity:1;stroke-width:0.5;"
       x1="263"
       x2="3036"
       y1="1055.54"
       y2="1055.54" />
    <g
       id="g30"
       style="fill:#27AAE1;stroke:none;"
       transform="matrix(1 0 0 1 339 1556)">
      <path
         d="M0.993654 0L3.63775 0L29.3281-67.1323L30.0303-67.1323L30.0303-70.459L28.1226-70.459ZM11.6885-24.4799L46.9815-24.4799L46.2315-26.7285L12.4385-26.7285ZM55.1196 0L57.7637 0L30.6382-70.459L29.4326-70.459L29.4326-67.1323Z"
         id="path30" />
    </g>
    <line
       id="Baseline-L"
       style="fill:none;stroke:#27AAE1;opacity:1;stroke-width:0.5;"
       x1="263"
       x2="3036"
       y1="1556"
       y2="1556" />
    <line
       id="Capline-L"
       style="fill:none;stroke:#27AAE1;opacity:1;stroke-width:0.5;"
       x1="263"
       x2="3036"
       y1="1485.54"
       y2="1485.54" />
    <line
       id="right-margin-Black-S"
       style="opacity:1;fill:none;stroke:#00aeef;stroke-width:0.5"
       x1="3046.6831"
       x2="3046.6831"
       y1="600.78497"
       y2="720.12097" />
    <line
       id="left-margin-Black-S"
       style="opacity:1;fill:none;stroke:#00aeef;stroke-width:0.5"
       x1="2825.7358"
       x2="2825.7358"
       y1="600.78497"
       y2="720.12097" />
    <line
       id="right-margin-Regular-S"
       style="opacity:1;fill:none;stroke:#00aeef;stroke-width:0.5"
       x1="1552.2999"
       x2="1552.2999"
       y1="600.78497"
       y2="720.12097" />
    <line
       id="left-margin-Regular-S"
       style="opacity:1;fill:none;stroke:#00aeef;stroke-width:0.5"
       x1="1342.7627"
       x2="1342.7627"
       y1="600.78497"
       y2="720.12097" />
    <line
       id="right-margin-Ultralight-S"
       style="opacity:1;fill:none;stroke:#00aeef;stroke-width:0.5"
       x1="661.94611"
       x2="661.94611"
       y1="607.39557"
       y2="726.73157" />
    <line
       id="left-margin-Ultralight-S"
       style="opacity:1;fill:none;stroke:#00aeef;stroke-width:0.5"
       x1="465.4086"
       x2="465.4086"
       y1="602.76813"
       y2="722.10413" />
  </g>
  <g
     id="Symbols">
    <g
       id="Black-S"
       transform="matrix(1 0 0 1 2884.57 696)">
      <path
         id="path3"
         class="cls-1"
         d="m 2970.7659,685.13559 c 0,-0.43463 0.1724,-0.76122 0.5147,-0.97975 0.3423,-0.21854 0.8888,-0.44937 1.6372,-0.69984 1.3098,-0.43463 2.2751,-0.85453 2.8979,-1.25969 0.6228,-0.40516 0.9355,-1.16638 0.9355,-2.2861 v -20.51849 c 0,-1.80237 -0.2191,-3.21677 -0.6548,-4.24317 -0.4358,-1.02642 -1.3099,-1.66241 -2.6196,-1.91287 -0.623,-0.12278 -0.9357,-0.55987 -0.9357,-1.30635 0,-0.80787 0.2808,-1.24251 0.8421,-1.30634 2.2454,-0.55987 4.146,-1.21304 5.7045,-1.95953 1.5585,-0.74648 3.3657,-1.74097 5.424,-2.98348 0.4974,-0.24801 0.81,-0.37325 0.9355,-0.37325 0.4358,0 0.6549,0.24803 0.6549,0.74648 l -0.187,2.05284 c -0.064,0.43464 -0.1256,0.9945 -0.1872,1.67959 -0.064,0.6851 -0.092,1.39966 -0.092,2.14614 0,0.62371 0.062,0.99696 0.1871,1.11974 h 0.1872 c 4.3012,-4.1646 9.0702,-6.24935 14.3069,-6.24935 4.3628,0 7.4501,2.23945 9.2574,6.71589 h 0.2808 c 4.4882,-4.47644 9.4442,-6.71589 14.8681,-6.71589 2.93,0 5.2837,1.2597 7.0613,3.77662 1.7752,2.51938 2.664,5.61336 2.664,9.27948 v 20.14524 c 0,1.11974 0.2954,1.86622 0.8888,2.23945 0.5908,0.37325 1.5733,0.77841 2.9446,1.21304 0.6845,0.18662 1.199,0.40516 1.5436,0.65318 0.3423,0.248 0.5147,0.59178 0.5147,1.02641 0,0.74649 -0.5934,1.11973 -1.7776,1.11973 -1.684,0 -3.149,-0.0933 -4.3949,-0.27993 -1.4968,-0.12278 -2.7747,-0.18663 -3.8333,-0.18663 -1.0587,0 -2.339,0.0639 -3.8334,0.18663 -1.1844,0.18662 -2.6517,0.27993 -4.3949,0.27993 -1.1842,0 -1.7776,-0.37324 -1.7776,-1.11973 0,-0.43463 0.1724,-0.77594 0.5147,-1.02641 0.3421,-0.24802 0.8568,-0.46656 1.5437,-0.65318 1.1227,-0.3094 1.9794,-0.68263 2.5728,-1.11973 0.5908,-0.43461 0.8888,-1.1492 0.8888,-2.14614 v -19.49207 c 0,-2.23944 -0.6549,-4.19652 -1.9648,-5.8761 -1.3098,-1.67959 -2.8683,-2.51694 -4.6753,-2.51694 -2.8685,0 -5.2689,0.80788 -7.2017,2.42362 -1.4353,1.11974 -2.1516,3.01786 -2.1516,5.68949 v 19.58538 c 0,1.11974 0.31,1.89815 0.9354,2.33276 0.6228,0.43463 1.5585,0.80789 2.8068,1.11973 0.6845,0.25047 1.199,0.4813 1.5436,0.69984 0.3423,0.21853 0.5147,0.54512 0.5147,0.97975 0,0.74649 -0.5934,1.11973 -1.7752,1.11973 -1.684,0 -3.149,-0.0933 -4.3947,-0.27993 -1.497,-0.12278 -2.7747,-0.18663 -3.8336,-0.18663 -1.0586,0 -2.3363,0.0639 -3.8333,0.18663 -1.1842,0.18662 -2.6516,0.27993 -4.3947,0.27993 -0.4999,0 -0.9209,-0.0933 -1.2631,-0.27993 -0.3423,-0.18663 -0.5145,-0.46655 -0.5145,-0.8398 0,-0.43463 0.1698,-0.76122 0.5145,-0.97975 0.3422,-0.21854 0.8567,-0.44937 1.5437,-0.69984 1.1227,-0.3094 1.9942,-0.68263 2.6197,-1.11973 0.6228,-0.43461 0.9356,-1.1492 0.9356,-2.14614 v -19.49207 c 0,-2.23944 -0.6402,-4.18178 -1.918,-5.82945 -1.2779,-1.64766 -2.851,-2.50219 -4.7223,-2.56603 -2.7451,0 -5.1431,0.80786 -7.2015,2.42361 -1.3714,0.9331 -2.0557,2.79931 -2.0557,5.59617 v 19.6787 c 0,1.05834 0.2805,1.80482 0.8419,2.23946 0.5613,0.43462 1.4329,0.83979 2.6197,1.21303 0.6844,0.25047 1.199,0.48127 1.5436,0.69981 0.3423,0.21855 0.5146,0.54515 0.5146,0.97978 0,0.74648 -0.5933,1.11971 -1.7751,1.11971 -1.7455,0 -3.1785,-0.0933 -4.3012,-0.27992 -1.497,-0.12278 -2.7427,-0.18662 -3.7399,-0.18662 -0.997,0 -2.307,0.0639 -3.927,0.18662 -1.1842,0.18661 -2.6812,0.27992 -4.4883,0.27992 -1.2483,0 -1.8712,-0.37323 -1.8712,-1.11971 z m -29.6456,-1.11728 c -0.3741,-0.68263 -0.6697,-1.88093 -0.8888,-3.58998 -0.219,-1.70906 -0.3274,-3.37147 -0.3274,-4.98967 0,-0.62125 0.4678,-0.93309 1.4035,-0.93309 0.31,0 0.608,0.0787 0.8888,0.23327 0.2805,0.15715 0.4824,0.3585 0.608,0.60652 0.8716,2.86069 2.1519,5.05104 3.8334,6.57593 1.6841,1.52489 3.5527,2.28365 5.6111,2.28365 1.7455,0 3.1784,-0.5746 4.3011,-1.72624 1.1227,-1.1492 1.6841,-2.53412 1.6841,-4.14986 0,-1.61575 -0.5465,-2.99821 -1.6372,-4.14987 -1.0907,-1.1492 -2.9471,-2.5022 -5.5643,-4.05655 -3.2425,-1.86621 -5.643,-3.71523 -7.2014,-5.54951 -1.5585,-1.83429 -2.3391,-4.02464 -2.3391,-6.57594 0,-3.29533 1.2164,-5.99889 3.6463,-8.1131 2.43,-2.11422 5.7046,-3.1701 9.8187,-3.1701 1.8072,0 3.4445,0.18662 4.9094,0.55987 1.4648,0.37323 2.5383,0.80786 3.2252,1.30633 0.4975,0.68509 0.9184,1.78763 1.2631,3.31008 0.3422,1.52488 0.5147,3.09396 0.5147,4.70972 0,0.24801 -0.1257,0.43462 -0.3743,0.55985 -0.2512,0.12524 -0.5319,0.18663 -0.8422,0.18663 -0.4358,0 -0.8567,-0.10809 -1.2628,-0.32659 -0.4064,-0.21854 -0.6403,-0.44936 -0.7018,-0.69982 -1.7455,-4.4126 -4.2397,-6.62259 -7.4796,-6.62259 -1.5585,0 -2.9152,0.48128 -4.0675,1.4463 -1.1548,0.96504 -1.7307,2.22472 -1.7307,3.77663 0,1.36773 0.4973,2.59551 1.4968,3.6833 0.9971,1.08782 2.6491,2.28612 4.9562,3.59 3.9885,2.237 6.81,4.27511 8.462,6.10939 1.652,1.83429 2.4793,4.18179 2.4793,7.04249 0,3.66857 -1.3097,6.57593 -3.9269,8.71961 -2.6197,2.14615 -6.1109,3.21675 -10.4736,3.21675 -4.3627,0 -7.6078,-1.08778 -10.2864,-3.26341 z m -26.3686,1.11728 c 0,-0.68264 0.6548,-1.21302 1.9648,-1.58627 1.5585,-0.43464 2.6492,-0.88645 3.272,-1.35301 0.6229,-0.46655 0.9357,-1.19585 0.9357,-2.1928 v -20.14524 c 0,-3.97798 -1.4035,-6.1855 -4.2077,-6.62259 -0.6254,-0.0613 -0.9356,-0.52795 -0.9356,-1.39966 0,-0.74649 0.2807,-1.1492 0.8421,-1.21303 4.0524,-0.87173 7.8858,-2.51938 11.5026,-4.94301 0.7484,-0.43463 1.2459,-0.65317 1.497,-0.65317 0.4973,0 0.7484,0.248 0.7484,0.74649 0,0.37324 -0.1255,1.80481 -0.3743,4.28982 -0.3741,3.72997 -0.5613,6.62259 -0.5613,8.67297 v 21.26497 c 0,0.9331 0.3274,1.66486 0.9825,2.1928 0.6549,0.52793 1.7307,0.97975 3.2251,1.35299 1.31,0.37325 1.9649,0.90119 1.9649,1.58629 0,0.74648 -0.5614,1.11971 -1.6841,1.11971 -1.6225,0 -3.149,-0.0933 -4.5819,-0.27992 -1.7456,-0.12278 -3.1491,-0.18662 -4.2077,-0.18662 -1.0586,0 -2.4004,0.0639 -4.0206,0.18662 -1.3098,0.18661 -2.8362,0.27992 -4.5818,0.27992 -1.1842,0 -1.7775,-0.37323 -1.7775,-1.11971 z m 6.2191,-48.17033 c -1.0906,-1.08779 -1.6372,-2.40887 -1.6372,-3.96323 0,-1.55435 0.5442,-2.96874 1.6372,-4.05655 1.0907,-1.0878 2.4153,-1.63293 3.9738,-1.63293 1.5585,0 2.9914,0.54513 4.1141,1.63293 1.1227,1.08781 1.6841,2.44081 1.6841,4.05655 0,1.61575 -0.5614,2.87789 -1.6841,3.96323 -1.1227,1.08782 -2.4939,1.63295 -4.1141,1.63295 -1.62,0 -2.8855,-0.54267 -3.9738,-1.63295 z m -39.7918,48.17033 c 0,-0.43463 0.1724,-0.77594 0.5147,-1.02641 0.3423,-0.24802 0.8888,-0.46656 1.6372,-0.65318 1.2459,-0.24802 2.1518,-0.6679 2.7132,-1.25969 0.5613,-0.58933 0.8421,-1.35301 0.8421,-2.2861 v -20.51849 c 0,-1.67959 -0.2487,-3.03259 -0.7486,-4.05656 -0.4996,-1.02642 -1.4032,-1.69431 -2.7106,-2.00372 -0.2488,-0.0613 -0.4827,-0.21854 -0.7018,-0.46655 -0.219,-0.24801 -0.3274,-0.55987 -0.3274,-0.93311 0,-0.62125 0.3102,-1.05587 0.9356,-1.30633 1.62,-0.43464 3.4124,-1.08782 5.3771,-1.95954 1.9648,-0.86925 3.6611,-1.70905 5.0964,-2.51937 0.8101,-0.49603 1.3715,-0.74648 1.6841,-0.74648 0.4358,0 0.6548,0.248 0.6548,0.74648 l -0.2805,7.18244 c 0,0.24802 0.062,0.37324 0.187,0.37324 1.6202,-2.05282 3.4124,-3.72995 5.3772,-5.03631 1.9647,-1.30634 3.8803,-1.95952 5.7514,-1.95952 1.6199,0 2.8658,0.3266 3.7398,0.97976 0.8716,0.65318 1.3099,1.50771 1.3099,2.56604 0,1.18112 -0.4532,2.42362 -1.3566,3.72997 -0.9036,1.30635 -1.8859,1.95952 -2.9447,1.95952 -0.4997,0 -1.4968,-0.34132 -2.9938,-1.02641 -0.2486,-0.12278 -0.7018,-0.32659 -1.3567,-0.60653 -0.6548,-0.27992 -1.231,-0.41989 -1.7307,-0.41989 -1.8096,0 -3.3042,0.6237 -4.4884,1.86621 -1.1842,1.24497 -1.7776,3.35672 -1.7776,6.34266 v 17.53501 c 0,0.9331 0.3743,1.67958 1.1227,2.237 0.7484,0.55986 1.9943,1.11971 3.7399,1.67959 0.7486,0.18661 1.2925,0.40516 1.6373,0.65316 0.3421,0.24802 0.5145,0.55988 0.5145,0.93311 0,0.74649 -0.5934,1.11973 -1.7752,1.11973 -1.8096,0 -3.459,-0.0933 -4.956,-0.27993 -1.8711,-0.12278 -3.3041,-0.18663 -4.3012,-0.18663 -0.9972,0 -2.3069,0.0639 -3.9271,0.18663 -1.3098,0.18662 -2.8362,0.27993 -4.5818,0.27993 -1.2482,0 -1.8713,-0.37324 -1.8713,-1.11973 z m -49.6547,26.3946 c -0.4358,-0.18664 -0.6549,-0.43464 -0.6549,-0.74648 0,-0.6851 0.7164,-1.27443 2.1519,-1.77044 1.3712,-0.43464 2.3512,-0.87172 2.9446,-1.30636 0.5908,-0.43464 0.8887,-1.18112 0.8887,-2.23945 v -46.35322 c 0,-1.11972 -0.3743,-2.37942 -1.1227,-3.77662 -0.7484,-1.39966 -1.7455,-2.22227 -2.9938,-2.47027 -0.6229,-0.18663 -0.9356,-0.65318 -0.9356,-1.39966 0,-0.74649 0.2808,-1.18111 0.842,-1.30634 3.4912,-0.80788 7.3886,-2.14614 11.6898,-4.00991 0.1256,-0.0613 0.2339,-0.12277 0.3274,-0.18662 0.094,-0.0613 0.234,-0.0933 0.4212,-0.0933 0.1871,0 0.3422,0.11048 0.4677,0.32657 0.1231,0.21855 0.1872,0.41991 0.1872,0.60652 l -0.1872,2.33278 c -0.1871,1.11971 -0.2806,2.20753 -0.2806,3.26341 0,0.49846 0.03,0.77841 0.093,0.83979 0.6844,-0.68263 1.8712,-1.52243 3.5527,-2.51692 1.6841,-0.99451 3.5676,-1.86622 5.6578,-2.6127 2.0879,-0.74649 4.0354,-1.11973 5.845,-1.11973 3.1169,0 5.8448,0.85453 8.1814,2.56359 2.3364,1.71151 4.1461,3.93377 5.4239,6.66923 1.2778,2.73794 1.9179,5.59618 1.9179,8.57965 0,3.72998 -0.9675,7.33716 -2.8978,10.81913 -1.9328,3.48195 -4.5203,6.31072 -7.7604,8.48634 -3.2426,2.1756 -6.7953,3.26341 -10.6607,3.26341 -1.3099,0 -2.8684,-0.26519 -4.6755,-0.79313 -1.8096,-0.52795 -3.1785,-1.13447 -4.114,-1.81957 -0.1257,0 -0.2192,0.48129 -0.2807,1.44632 -0.062,0.96257 -0.092,1.72625 -0.092,2.28609 v 16.69522 c 0,1.05589 0.3741,1.81957 1.1227,2.28611 0.7484,0.46655 1.5584,0.8398 2.43,1.11973 0.8716,0.27993 1.4328,0.44937 1.684,0.51322 0.6845,0.24799 1.2162,0.48127 1.5904,0.69982 0.3743,0.21608 0.5614,0.54267 0.5614,0.97975 0,0.30941 -0.2019,0.55987 -0.608,0.74649 -0.4063,0.18662 -0.8569,0.27993 -1.3566,0.27993 -1.8096,0 -3.4913,-0.0933 -5.0498,-0.27993 -1.9967,-0.12524 -3.5231,-0.18662 -4.5818,-0.18662 -1.1227,0 -2.4301,0.0613 -3.9271,0.18662 -1.3097,0.18662 -2.8067,0.27993 -4.4882,0.27993 -0.4358,0 -0.8741,-0.0933 -1.3099,-0.27993 z m 28.4737,-29.1448 c 1.7137,-1.08781 3.2105,-2.82877 4.4884,-5.22293 1.2777,-2.3917 1.9179,-5.45621 1.9179,-9.18618 0,-6.15603 -1.2163,-10.36729 -3.6463,-12.63866 -2.43,-2.26892 -5.0201,-3.40339 -7.7604,-3.40339 -1.3098,0 -2.6984,0.27994 -4.161,0.83981 -1.4648,0.55985 -2.6984,1.21303 -3.693,1.95951 -0.9971,0.7465 -1.497,1.36775 -1.497,1.86622 l -0.092,9.51276 c -0.062,1.49296 -0.093,3.1701 -0.093,5.03631 0,2.11422 0.4826,4.16706 1.4503,6.15604 0.9651,1.99143 2.228,3.60718 3.7865,4.84969 1.5585,1.24496 3.1466,1.86621 4.769,1.86621 1.3099,0 2.8192,-0.54268 4.5351,-1.63293 z"
         style="fill:none;stroke:#000000;stroke-width:0.5;stroke-dasharray:none;stroke-opacity:1"
         transform="translate(-2884.57,-696)" />
    </g>
    <g
       id="Regular-S"
       transform="matrix(1 0 0 1 1403.58 696)">
      <path
         id="path2"
         class="cls-1"
         d="m 1481.6713,682.70574 c 0,-0.40891 0.1622,-0.71618 0.4843,-0.92178 0.3221,-0.20561 0.8364,-0.42278 1.5407,-0.65843 1.2326,-0.40891 2.1409,-0.80396 2.727,-1.18515 0.5861,-0.38119 0.8804,-1.09736 0.8804,-2.15083 v -19.30438 c 0,-1.69572 -0.2062,-3.02643 -0.6162,-3.9921 -0.4101,-0.96568 -1.2327,-1.56404 -2.4652,-1.79968 -0.5862,-0.11551 -0.8805,-0.52674 -0.8805,-1.22905 0,-0.76007 0.2642,-1.16899 0.7924,-1.22904 2.113,-0.52674 3.9016,-1.14126 5.3682,-1.84358 1.4666,-0.70231 3.1672,-1.63796 5.1042,-2.80695 0.468,-0.23333 0.7622,-0.35116 0.8803,-0.35116 0.4101,0 0.6163,0.23335 0.6163,0.70231 l -0.176,1.93137 c -0.06,0.40892 -0.1182,0.93565 -0.1761,1.58021 -0.06,0.64456 -0.087,1.31684 -0.087,2.01915 0,0.5868 0.058,0.93796 0.1761,1.05348 h 0.1761 c 4.0476,-3.91818 8.5354,-5.87957 13.4633,-5.87957 4.1056,0 7.0109,2.10694 8.7116,6.3185 h 0.2642 c 4.2236,-4.21156 8.8874,-6.3185 13.9915,-6.3185 2.7572,0 4.9721,1.18516 6.6449,3.55315 1.6705,2.37031 2.5069,5.28121 2.5069,8.7304 v 18.95322 c 0,1.05348 0.278,1.75579 0.8364,2.10694 0.556,0.35116 1.4805,0.73235 2.771,1.14126 0.6441,0.17558 1.1283,0.38119 1.4526,0.61453 0.3221,0.23333 0.4843,0.55677 0.4843,0.96568 0,0.70232 -0.5584,1.05347 -1.6728,1.05347 -1.5847,0 -2.9633,-0.0878 -4.1357,-0.26336 -1.4086,-0.11552 -2.6111,-0.17559 -3.6073,-0.17559 -0.9963,0 -2.2011,0.0601 -3.6074,0.17559 -1.1145,0.17557 -2.4953,0.26336 -4.1357,0.26336 -1.1144,0 -1.6728,-0.35115 -1.6728,-1.05347 0,-0.40891 0.1622,-0.73003 0.4843,-0.96568 0.322,-0.23334 0.8063,-0.43895 1.4527,-0.61453 1.0565,-0.29109 1.8627,-0.64224 2.4211,-1.05347 0.556,-0.4089 0.8364,-1.0812 0.8364,-2.01915 v -18.3387 c 0,-2.10693 -0.6163,-3.9482 -1.8489,-5.5284 -1.2326,-1.58021 -2.6992,-2.36801 -4.3997,-2.36801 -2.6993,0 -4.9582,0.76008 -6.777,2.28021 -1.3507,1.05348 -2.0248,2.83929 -2.0248,5.35284 v 18.42648 c 0,1.05348 0.2918,1.78583 0.8803,2.19473 0.5861,0.40891 1.4666,0.76008 2.6413,1.05347 0.6441,0.23565 1.1283,0.45282 1.4526,0.65843 0.3221,0.2056 0.4843,0.51287 0.4843,0.92178 0,0.70232 -0.5584,1.05347 -1.6705,1.05347 -1.5847,0 -2.9633,-0.0878 -4.1356,-0.26336 -1.4087,-0.11552 -2.6111,-0.17559 -3.6075,-0.17559 -0.9962,0 -2.1986,0.0601 -3.6073,0.17559 -1.1144,0.17557 -2.4953,0.26336 -4.1356,0.26336 -0.4704,0 -0.8666,-0.0878 -1.1886,-0.26336 -0.3221,-0.17559 -0.4842,-0.43895 -0.4842,-0.79011 0,-0.40891 0.1598,-0.71618 0.4842,-0.92178 0.322,-0.20561 0.8062,-0.42278 1.4527,-0.65843 1.0565,-0.29109 1.8766,-0.64224 2.4652,-1.05347 0.5861,-0.4089 0.8804,-1.0812 0.8804,-2.01915 v -18.3387 c 0,-2.10693 -0.6024,-3.93434 -1.8049,-5.48451 -1.2025,-1.55017 -2.6829,-2.35413 -4.4438,-2.4142 -2.5833,0 -4.8399,0.76006 -6.7769,2.28021 -1.2905,0.87788 -1.9345,2.63367 -1.9345,5.26503 v 18.51429 c 0,0.99571 0.264,1.69802 0.7923,2.10694 0.5282,0.40891 1.3484,0.7901 2.4652,1.14126 0.644,0.23565 1.1283,0.45279 1.4526,0.6584 0.3221,0.20562 0.4842,0.51289 0.4842,0.9218 0,0.70231 -0.5583,1.05346 -1.6704,1.05346 -1.6426,0 -2.9911,-0.0878 -4.0476,-0.26336 -1.4087,-0.11551 -2.581,-0.17558 -3.5194,-0.17558 -0.9382,0 -2.1709,0.0601 -3.6954,0.17558 -1.1144,0.17557 -2.5231,0.26336 -4.2237,0.26336 -1.1747,0 -1.7608,-0.35115 -1.7608,-1.05346 z m -27.8976,-1.05117 c -0.3521,-0.64224 -0.6302,-1.76963 -0.8364,-3.37756 -0.2061,-1.60793 -0.3081,-3.17197 -0.3081,-4.69442 0,-0.58449 0.4402,-0.87788 1.3207,-0.87788 0.2918,0 0.5722,0.074 0.8364,0.21947 0.264,0.14785 0.454,0.33729 0.5722,0.57063 0.8202,2.69142 2.025,4.75216 3.6074,6.18682 1.5848,1.43466 3.3432,2.14853 5.2802,2.14853 1.6426,0 2.991,-0.5406 4.0475,-1.6241 1.0565,-1.0812 1.5848,-2.38417 1.5848,-3.90431 0,-1.52014 -0.5143,-2.8208 -1.5407,-3.90431 -1.0264,-1.0812 -2.7733,-2.35414 -5.2362,-3.81652 -3.0513,-1.75578 -5.3102,-3.4954 -6.7768,-5.22114 -1.4666,-1.72575 -2.2011,-3.78649 -2.2011,-6.18683 0,-3.10034 1.1446,-5.64393 3.4313,-7.63304 2.2867,-1.98912 5.3682,-2.98252 9.2397,-2.98252 1.7007,0 3.2414,0.17558 4.6199,0.52674 1.3785,0.35115 2.3887,0.76006 3.0351,1.22904 0.4681,0.64455 0.8642,1.68185 1.1886,3.11421 0.322,1.43466 0.4843,2.91089 0.4843,4.43104 0,0.23334 -0.1182,0.40891 -0.3522,0.52673 -0.2364,0.11783 -0.5005,0.17558 -0.7925,0.17558 -0.4101,0 -0.8062,-0.10169 -1.1884,-0.30726 -0.3824,-0.20561 -0.6025,-0.42277 -0.6604,-0.65841 -1.6426,-4.1515 -3.9897,-6.23072 -7.0386,-6.23072 -1.4666,0 -2.7433,0.4528 -3.8276,1.36072 -1.0867,0.90793 -1.6287,2.09308 -1.6287,3.55316 0,1.2868 0.468,2.44193 1.4086,3.46535 0.9383,1.02345 2.4929,2.15085 4.6639,3.37758 3.7534,2.10463 6.4085,4.02214 7.9631,5.74788 1.5546,1.72576 2.3331,3.93435 2.3331,6.62578 0,3.4515 -1.2325,6.18682 -3.6954,8.20366 -2.4652,2.01916 -5.7505,3.02641 -9.856,3.02641 -4.1055,0 -7.1592,-1.02342 -9.6799,-3.07031 z m -24.8138,1.05117 c 0,-0.64225 0.6162,-1.14125 1.8489,-1.49241 1.4666,-0.40892 2.493,-0.834 3.0791,-1.27295 0.5862,-0.43894 0.8805,-1.12509 0.8805,-2.06305 v -18.95322 c 0,-3.74259 -1.3207,-5.81949 -3.9596,-6.23072 -0.5885,-0.0577 -0.8804,-0.49671 -0.8804,-1.31684 0,-0.70232 0.2641,-1.0812 0.7924,-1.14125 3.8135,-0.82015 7.4209,-2.37031 10.8244,-4.65053 0.7043,-0.40891 1.1724,-0.61452 1.4087,-0.61452 0.468,0 0.7043,0.23333 0.7043,0.70232 0,0.35116 -0.1181,1.69802 -0.3522,4.03599 -0.3521,3.50926 -0.5282,6.23072 -0.5282,8.15977 v 20.0067 c 0,0.87788 0.3081,1.56634 0.9245,2.06304 0.6163,0.4967 1.6287,0.92178 3.035,1.27294 1.2327,0.35116 1.849,0.84786 1.849,1.49242 0,0.70231 -0.5283,1.05346 -1.5848,1.05346 -1.5268,0 -2.9633,-0.0878 -4.3117,-0.26336 -1.6427,-0.11551 -2.9634,-0.17558 -3.9596,-0.17558 -0.9962,0 -2.2589,0.0601 -3.7835,0.17558 -1.2326,0.17557 -2.669,0.26336 -4.3117,0.26336 -1.1144,0 -1.6727,-0.35115 -1.6727,-1.05346 z m 5.8524,-45.32002 c -1.0263,-1.02343 -1.5407,-2.26634 -1.5407,-3.72872 0,-1.46238 0.5121,-2.79308 1.5407,-3.81652 1.0264,-1.02344 2.2729,-1.53631 3.7395,-1.53631 1.4666,0 2.815,0.51287 3.8715,1.53631 1.0565,1.02344 1.5848,2.29638 1.5848,3.81652 0,1.52014 -0.5283,2.7076 -1.5848,3.72872 -1.0565,1.02345 -2.3469,1.53632 -3.8715,1.53632 -1.5245,0 -2.7154,-0.51056 -3.7395,-1.53632 z m -37.4455,45.32002 c 0,-0.40891 0.1622,-0.73003 0.4843,-0.96568 0.3221,-0.23334 0.8364,-0.43895 1.5407,-0.61453 1.1724,-0.23334 2.0249,-0.62838 2.5532,-1.18515 0.5282,-0.55446 0.7924,-1.27295 0.7924,-2.15083 v -19.30438 c 0,-1.58021 -0.234,-2.85315 -0.7044,-3.81653 -0.4702,-0.96568 -1.3205,-1.59405 -2.5508,-1.88515 -0.2341,-0.0577 -0.4542,-0.20561 -0.6604,-0.43895 -0.2061,-0.23333 -0.3081,-0.52674 -0.3081,-0.87789 0,-0.58449 0.2919,-0.9934 0.8804,-1.22904 1.5245,-0.40892 3.2112,-1.02345 5.0601,-1.84359 1.8489,-0.81781 3.4452,-1.60792 4.7959,-2.37029 0.7623,-0.46668 1.2906,-0.70231 1.5848,-0.70231 0.4101,0 0.6162,0.23332 0.6162,0.70231 l -0.264,6.75744 c 0,0.23335 0.058,0.35116 0.176,0.35116 1.5246,-1.93136 3.2112,-3.50925 5.0601,-4.73831 1.8489,-1.22904 3.6515,-1.84357 5.4123,-1.84357 1.5244,0 2.6968,0.30727 3.5193,0.92179 0.8202,0.61453 1.2326,1.41849 1.2326,2.4142 0,1.11123 -0.4264,2.28021 -1.2766,3.50926 -0.8503,1.22905 -1.7747,1.84357 -2.771,1.84357 -0.4703,0 -1.4086,-0.32112 -2.8173,-0.96567 -0.234,-0.11552 -0.6604,-0.30727 -1.2767,-0.57064 -0.6162,-0.26336 -1.1584,-0.39505 -1.6287,-0.39505 -1.7029,0 -3.1093,0.5868 -4.2237,1.75579 -1.1144,1.1713 -1.6728,3.15809 -1.6728,5.96735 v 16.49744 c 0,0.87789 0.3522,1.5802 1.0565,2.10463 0.7043,0.52674 1.8767,1.05346 3.5194,1.58021 0.7044,0.17557 1.2163,0.38119 1.5407,0.61451 0.322,0.23335 0.4842,0.52675 0.4842,0.8779 0,0.70232 -0.5584,1.05347 -1.6705,1.05347 -1.7029,0 -3.2551,-0.0878 -4.6638,-0.26336 -1.7608,-0.11552 -3.1093,-0.17559 -4.0476,-0.17559 -0.9384,0 -2.1709,0.0601 -3.6955,0.17559 -1.2326,0.17557 -2.669,0.26336 -4.3117,0.26336 -1.1746,0 -1.7609,-0.35115 -1.7609,-1.05347 z m -46.7269,24.83279 c -0.4101,-0.17559 -0.6163,-0.40892 -0.6163,-0.70231 0,-0.64456 0.6742,-1.19902 2.025,-1.66568 1.2904,-0.40892 2.2126,-0.82014 2.771,-1.22906 0.556,-0.40892 0.8363,-1.11123 0.8363,-2.10694 v -43.61043 c 0,-1.05347 -0.3522,-2.23863 -1.0565,-3.55315 -0.7043,-1.31684 -1.6426,-2.09078 -2.8173,-2.3241 -0.5862,-0.17559 -0.8804,-0.61453 -0.8804,-1.31684 0,-0.70232 0.2642,-1.11123 0.7923,-1.22905 3.2854,-0.76007 6.953,-2.01915 11.0006,-3.77263 0.1182,-0.0577 0.2201,-0.11551 0.3081,-0.17558 0.088,-0.0577 0.2202,-0.0878 0.3963,-0.0878 0.1761,0 0.322,0.10394 0.4401,0.30725 0.1159,0.20562 0.1762,0.39506 0.1762,0.57063 l -0.1762,2.19474 c -0.176,1.05346 -0.264,2.07691 -0.264,3.07031 0,0.46897 0.028,0.73235 0.088,0.7901 0.644,-0.64224 1.7608,-1.43234 3.3432,-2.36799 1.5848,-0.93566 3.3572,-1.75579 5.3242,-2.4581 1.9648,-0.70232 3.7974,-1.05347 5.5003,-1.05347 2.9332,0 5.5002,0.80396 7.699,2.41189 2.1987,1.61024 3.9017,3.70101 5.1041,6.27461 1.2025,2.57593 1.8048,5.26504 1.8048,8.07198 0,3.50927 -0.9104,6.90301 -2.7269,10.17894 -1.8188,3.27592 -4.2538,5.93731 -7.3028,7.98419 -3.0514,2.04687 -6.3946,3.07031 -10.0321,3.07031 -1.2327,0 -2.6993,-0.2495 -4.3998,-0.7462 -1.7029,-0.49671 -2.9911,-1.06734 -3.8715,-1.7119 -0.1182,0 -0.2062,0.45281 -0.2641,1.36074 -0.058,0.90561 -0.087,1.6241 -0.087,2.15082 v 15.70734 c 0,0.99341 0.3521,1.7119 1.0565,2.15084 0.7043,0.43894 1.4666,0.7901 2.2868,1.05347 0.8202,0.26337 1.3483,0.42278 1.5847,0.48285 0.6441,0.23332 1.1445,0.45279 1.4966,0.65841 0.3522,0.2033 0.5283,0.51056 0.5283,0.92178 0,0.2911 -0.19,0.52674 -0.5722,0.70232 -0.3823,0.17558 -0.8063,0.26336 -1.2766,0.26336 -1.7029,0 -3.2854,-0.0878 -4.752,-0.26336 -1.879,-0.11783 -3.3154,-0.17558 -4.3117,-0.17558 -1.0565,0 -2.2868,0.0577 -3.6955,0.17558 -1.2325,0.17558 -2.6412,0.26336 -4.2236,0.26336 -0.4101,0 -0.8225,-0.0878 -1.2326,-0.26336 z m 26.7948,-27.42026 c 1.6126,-1.02344 3.0212,-2.66139 4.2237,-4.91388 1.2024,-2.25018 1.8048,-5.13336 1.8048,-8.64262 0,-5.79177 -1.1446,-9.75384 -3.4313,-11.89081 -2.2867,-2.13467 -4.7241,-3.20201 -7.3028,-3.20201 -1.2326,0 -2.5393,0.26338 -3.9156,0.79012 -1.3785,0.52672 -2.5393,1.14125 -3.4753,1.84356 -0.9383,0.70233 -1.4087,1.28682 -1.4087,1.75579 l -0.087,8.94988 c -0.058,1.40462 -0.088,2.98252 -0.088,4.7383 0,1.98912 0.4542,3.92049 1.3648,5.79178 0.9082,1.8736 2.0967,3.39374 3.5633,4.56273 1.4666,1.17129 2.961,1.75578 4.4878,1.75578 1.2326,0 2.6529,-0.51057 4.2677,-1.5363 z"
         style="fill:none;stroke:#000000;stroke-width:0.5;stroke-dasharray:none;stroke-opacity:1"
         transform="translate(-1403.58,-696)" />
    </g>
    <g
       id="Ultralight-S"
       transform="matrix(1 0 0 1 515.649 696)">
      <path
         id="path6"
         class="cls-1"
         d="m 593.92504,683.58116 c 0,-0.3832 0.15202,-0.67114 0.45388,-0.86381 0.30187,-0.19268 0.78399,-0.39619 1.44419,-0.61702 1.15535,-0.38319 2.00667,-0.7534 2.5561,-1.11061 0.54945,-0.35722 0.82525,-1.02835 0.82525,-2.01556 v -18.09027 c 0,-1.58907 -0.19328,-2.83608 -0.57767,-3.74102 -0.38439,-0.90495 -1.15535,-1.46567 -2.3107,-1.68649 -0.54944,-0.10825 -0.82525,-0.49361 -0.82525,-1.15175 0,-0.71227 0.24758,-1.09547 0.74272,-1.15175 1.9806,-0.49361 3.65717,-1.06948 5.03187,-1.72763 1.37469,-0.65814 2.96873,-1.53494 4.78428,-2.63041 0.43868,-0.21865 0.71449,-0.32907 0.82525,-0.32907 0.38439,0 0.57767,0.21867 0.57767,0.65814 l -0.16505,1.8099 c -0.0564,0.3832 -0.11075,0.8768 -0.16505,1.48082 -0.0564,0.60402 -0.0825,1.23402 -0.0825,1.89216 0,0.5499 0.0543,0.87897 0.16505,0.98722 h 0.16504 c 3.79399,-3.67175 8.0006,-5.50978 12.61983,-5.50978 3.84827,0 6.5716,1.97443 8.16564,5.92111 h 0.24758 c 3.95903,-3.94668 8.33069,-5.92111 13.11498,-5.92111 2.58434,0 4.66049,1.11062 6.22847,3.32968 1.5658,2.22123 2.34979,4.94906 2.34979,8.18132 v 17.76119 c 0,0.98722 0.2606,1.64536 0.78399,1.97443 0.52121,0.32907 1.38773,0.68629 2.59737,1.06948 0.60374,0.16454 1.05762,0.35722 1.36166,0.57588 0.30187,0.21866 0.45389,0.52175 0.45389,0.90495 0,0.65814 -0.52339,0.98721 -1.56798,0.98721 -1.48544,0 -2.77762,-0.0823 -3.8765,-0.2468 -1.32041,-0.10825 -2.44753,-0.16454 -3.38136,-0.16454 -0.93384,0 -2.06313,0.0563 -3.38136,0.16454 -1.0446,0.16453 -2.33893,0.2468 -3.87651,0.2468 -1.04459,0 -1.56797,-0.32907 -1.56797,-0.98721 0,-0.3832 0.15202,-0.68412 0.45388,-0.90495 0.30187,-0.21866 0.75576,-0.41134 1.36167,-0.57588 0.9903,-0.27278 1.74605,-0.60185 2.26944,-0.98721 0.52121,-0.38319 0.78399,-1.0132 0.78399,-1.89216 v -17.18532 c 0,-1.97442 -0.57768,-3.69989 -1.73303,-5.18071 -1.15535,-1.48082 -2.53005,-2.21907 -4.12409,-2.21907 -2.53004,0 -4.64746,0.71227 -6.35226,2.1368 -1.2661,0.98722 -1.89807,2.66071 -1.89807,5.01618 v 17.26758 c 0,0.98722 0.27364,1.67351 0.82525,2.0567 0.54944,0.38319 1.3747,0.71227 2.47575,0.98721 0.60374,0.22083 1.05763,0.42434 1.36167,0.61702 0.30187,0.19267 0.45388,0.48061 0.45388,0.86381 0,0.65814 -0.52338,0.98721 -1.5658,0.98721 -1.48545,0 -2.77762,-0.0823 -3.87651,-0.2468 -1.3204,-0.10825 -2.44752,-0.16454 -3.38136,-0.16454 -0.93384,0 -2.06095,0.0563 -3.38135,0.16454 -1.0446,0.16453 -2.33894,0.2468 -3.87651,0.2468 -0.44086,0 -0.81223,-0.0823 -1.11409,-0.2468 -0.30187,-0.16454 -0.45388,-0.41134 -0.45388,-0.74041 0,-0.3832 0.14984,-0.67114 0.45388,-0.86381 0.30186,-0.19268 0.75576,-0.39619 1.36167,-0.61702 0.9903,-0.27278 1.75909,-0.60185 2.3107,-0.98721 0.54944,-0.38319 0.82525,-1.0132 0.82525,-1.89216 v -17.18532 c 0,-1.97442 -0.56465,-3.6869 -1.69177,-5.13958 -1.12712,-1.45267 -2.51484,-2.20607 -4.16534,-2.26236 -2.42146,0 -4.53671,0.71226 -6.35226,2.1368 -1.20965,0.82267 -1.81338,2.46803 -1.81338,4.9339 v 17.34986 c 0,0.93309 0.24757,1.59123 0.74273,1.97443 0.49514,0.38319 1.26393,0.74041 2.31069,1.06948 0.60374,0.22083 1.05763,0.42432 1.36167,0.617 0.30187,0.19268 0.45389,0.48063 0.45389,0.86382 0,0.65814 -0.52339,0.98721 -1.56581,0.98721 -1.53974,0 -2.80368,-0.0823 -3.79398,-0.2468 -1.3204,-0.10825 -2.41928,-0.16454 -3.29883,-0.16454 -0.87954,0 -2.0349,0.0563 -3.46388,0.16454 -1.0446,0.16453 -2.365,0.2468 -3.95904,0.2468 -1.10106,0 -1.6505,-0.32907 -1.6505,-0.98721 z m -26.1496,-0.98506 c -0.3301,-0.60185 -0.5907,-1.65834 -0.78399,-3.16514 -0.19328,-1.5068 -0.28884,-2.97247 -0.28884,-4.39917 0,-0.54773 0.41262,-0.82267 1.23788,-0.82267 0.27364,0 0.53641,0.0693 0.78399,0.20567 0.24758,0.13855 0.42566,0.31608 0.53641,0.53474 0.76879,2.52215 1.89808,4.45328 3.38136,5.79771 1.48545,1.34443 3.13378,2.0134 4.94933,2.0134 1.53974,0 2.80368,-0.5066 3.79398,-1.52195 0.9903,-1.0132 1.48545,-2.23422 1.48545,-3.65876 0,-1.42453 -0.48212,-2.64339 -1.44418,-3.65875 -0.96207,-1.0132 -2.59955,-2.20608 -4.90807,-3.57649 -2.86015,-1.64535 -4.97757,-3.27556 -6.35226,-4.89277 -1.3747,-1.61721 -2.06313,-3.54834 -2.06313,-5.79772 0,-2.90535 1.07283,-5.28896 3.2163,-7.15297 2.14348,-1.86402 5.03187,-2.79494 8.66079,-2.79494 1.59404,0 3.03823,0.16454 4.3304,0.49361 1.29217,0.32907 2.23904,0.71226 2.84494,1.15174 0.43869,0.60402 0.81005,1.57608 1.11409,2.91835 0.30187,1.34443 0.45389,2.72782 0.45389,4.15236 0,0.21866 -0.11075,0.38319 -0.3301,0.4936 -0.22152,0.11042 -0.46909,0.16454 -0.74272,0.16454 -0.3844,0 -0.75576,-0.0953 -1.11409,-0.28794 -0.35834,-0.19268 -0.56465,-0.39618 -0.61894,-0.617 -1.53975,-3.8904 -3.73969,-5.83885 -6.59766,-5.83885 -1.3747,0 -2.57131,0.42432 -3.58767,1.27514 -1.01854,0.85083 -1.52672,1.96144 -1.52672,3.32969 0,1.20587 0.43869,2.28835 1.32041,3.24741 0.87954,0.95908 2.33675,2.01557 4.37165,3.16515 3.51817,1.97226 6.00696,3.76917 7.46417,5.38638 1.45723,1.61722 2.18692,3.6869 2.18692,6.20906 0,3.23442 -1.15535,5.79771 -3.46388,7.68771 -2.31071,1.89216 -5.39019,2.83607 -9.23847,2.83607 -3.84827,0 -6.71059,-0.95906 -9.07341,-2.87721 z m -23.25905,0.98506 c 0,-0.60186 0.57767,-1.06948 1.73303,-1.39855 1.37469,-0.3832 2.33676,-0.78155 2.88621,-1.19289 0.54944,-0.41134 0.82525,-1.05433 0.82525,-1.9333 v -17.76119 c 0,-3.50721 -1.23788,-5.45349 -3.71146,-5.83885 -0.55162,-0.0541 -0.82525,-0.46547 -0.82525,-1.23402 0,-0.65815 0.24757,-1.0132 0.74273,-1.06948 3.57463,-0.76856 6.95599,-2.22123 10.14624,-4.35804 0.6602,-0.38319 1.09889,-0.57587 1.3204,-0.57587 0.43869,0 0.6602,0.21866 0.6602,0.65815 0,0.32907 -0.11075,1.59123 -0.3301,3.78215 -0.3301,3.28855 -0.49515,5.83885 -0.49515,7.64658 v 18.74841 c 0,0.82267 0.28883,1.46783 0.86651,1.93329 0.57767,0.46546 1.52672,0.86381 2.84495,1.19288 1.15535,0.32908 1.73302,0.79454 1.73302,1.39856 0,0.65814 -0.49515,0.98721 -1.48545,0.98721 -1.43115,0 -2.77762,-0.0823 -4.04155,-0.2468 -1.53975,-0.10825 -2.77763,-0.16454 -3.71146,-0.16454 -0.93384,0 -2.11743,0.0563 -3.54641,0.16454 -1.15535,0.16453 -2.50182,0.2468 -4.04156,0.2468 -1.0446,0 -1.56797,-0.32907 -1.56797,-0.98721 z m 5.48575,-42.4697 c -0.96207,-0.95907 -1.44419,-2.12381 -1.44419,-3.49421 0,-1.37041 0.47995,-2.61742 1.44419,-3.57649 0.96207,-0.95907 2.13045,-1.43969 3.50515,-1.43969 1.37469,0 2.63862,0.48062 3.62893,1.43969 0.9903,0.95907 1.48545,2.15195 1.48545,3.57649 0,1.42453 -0.49515,2.53731 -1.48545,3.49421 -0.99031,0.95908 -2.19995,1.43969 -3.62893,1.43969 -1.42899,0 -2.54525,-0.47845 -3.50515,-1.43969 z m -35.09923,42.4697 c 0,-0.3832 0.15202,-0.68412 0.45389,-0.90495 0.30187,-0.21866 0.78399,-0.41134 1.44419,-0.57588 1.09889,-0.21866 1.89807,-0.58886 2.39323,-1.11061 0.49514,-0.51959 0.74273,-1.19289 0.74273,-2.01556 v -18.09027 c 0,-1.48082 -0.21935,-2.6737 -0.66021,-3.57649 -0.44085,-0.90495 -1.23787,-1.4938 -2.39106,-1.76659 -0.21934,-0.0541 -0.42565,-0.19268 -0.61893,-0.41134 -0.19328,-0.21866 -0.28884,-0.49361 -0.28884,-0.82268 0,-0.54773 0.27364,-0.93092 0.82525,-1.15174 1.42899,-0.3832 3.01,-0.95908 4.74303,-1.72764 1.73302,-0.76638 3.22933,-1.50679 4.49543,-2.22122 0.7145,-0.43733 1.20965,-0.65814 1.48546,-0.65814 0.3844,0 0.57768,0.21865 0.57768,0.65814 l -0.24758,6.33245 c 0,0.21867 0.0543,0.32907 0.16505,0.32907 1.42899,-1.80989 3.01,-3.28854 4.74302,-4.4403 1.73303,-1.15174 3.42263,-1.72762 5.07312,-1.72762 1.42899,0 2.52788,0.28794 3.29884,0.86381 0.76878,0.57588 1.15535,1.32928 1.15535,2.26237 0,1.04134 -0.3996,2.1368 -1.19662,3.28855 -0.79702,1.15175 -1.66353,1.72762 -2.59737,1.72762 -0.44085,0 -1.32039,-0.30092 -2.6408,-0.90494 -0.21934,-0.10825 -0.61893,-0.28794 -1.19661,-0.53475 -0.57768,-0.24679 -1.08586,-0.3702 -1.52672,-0.3702 -1.59621,0 -2.91444,0.54989 -3.95903,1.64536 -1.04459,1.09763 -1.56798,2.95947 -1.56798,5.59205 v 15.45986 c 0,0.82268 0.33011,1.48082 0.9903,1.97226 0.66021,0.49361 1.75909,0.98721 3.29884,1.48083 0.6602,0.16453 1.14015,0.35721 1.44418,0.57586 0.30188,0.21867 0.45389,0.49362 0.45389,0.82269 0,0.65814 -0.52338,0.98721 -1.5658,0.98721 -1.59621,0 -3.05126,-0.0823 -4.37166,-0.2468 -1.6505,-0.10825 -2.91444,-0.16454 -3.79398,-0.16454 -0.87955,0 -2.0349,0.0563 -3.46389,0.16454 -1.15535,0.16453 -2.50181,0.2468 -4.04155,0.2468 -1.10106,0 -1.65051,-0.32907 -1.65051,-0.98721 z m -43.79911,23.27097 c -0.38439,-0.16454 -0.57767,-0.3832 -0.57767,-0.65814 0,-0.60402 0.63196,-1.12361 1.89808,-1.56092 1.20964,-0.3832 2.07398,-0.76856 2.59737,-1.15176 0.5212,-0.3832 0.78398,-1.04134 0.78398,-1.97443 v -40.86763 c 0,-0.98721 -0.3301,-2.09783 -0.9903,-3.32968 -0.6602,-1.23402 -1.53974,-1.95928 -2.64081,-2.17793 -0.54943,-0.16454 -0.82524,-0.57588 -0.82524,-1.23402 0,-0.65815 0.24757,-1.04134 0.74272,-1.15175 3.07949,-0.71227 6.51731,-1.89216 10.3113,-3.53536 0.11076,-0.0541 0.20631,-0.10824 0.28883,-0.16453 0.0825,-0.0541 0.20632,-0.0823 0.37136,-0.0823 0.16506,0 0.30188,0.0974 0.41263,0.28793 0.10859,0.19268 0.16505,0.37021 0.16505,0.53474 l -0.16505,2.0567 c -0.16504,0.98721 -0.24757,1.94629 -0.24757,2.87721 0,0.43948 0.0261,0.68629 0.0825,0.74041 0.60373,-0.60185 1.65049,-1.34226 3.13378,-2.21906 1.48545,-0.87681 3.14681,-1.64536 4.9906,-2.3035 1.84161,-0.65815 3.55943,-0.98722 5.15564,-0.98722 2.74939,0 5.15565,0.7534 7.2166,2.2602 2.06096,1.50897 3.65717,3.46824 4.78428,5.87998 1.12713,2.41392 1.69177,4.93391 1.69177,7.56431 0,3.28856 -0.85348,6.46886 -2.55611,9.53875 -1.70479,3.06989 -3.98726,5.5639 -6.84523,7.48204 -2.86015,1.91814 -5.99394,2.87721 -9.40352,2.87721 -1.15536,0 -2.53005,-0.23381 -4.12409,-0.69927 -1.59621,-0.46547 -2.80368,-1.00021 -3.62893,-1.60423 -0.11076,0 -0.19328,0.42433 -0.24757,1.27516 -0.0543,0.84865 -0.0825,1.52195 -0.0825,2.01555 v 14.71945 c 0,0.93093 0.3301,1.60423 0.9903,2.01557 0.66021,0.41133 1.37469,0.74041 2.14348,0.98721 0.76879,0.24681 1.26394,0.39619 1.48545,0.45248 0.60374,0.21865 1.07283,0.42432 1.40293,0.617 0.3301,0.19052 0.49515,0.47845 0.49515,0.86381 0,0.27279 -0.17808,0.49361 -0.53642,0.65815 -0.35832,0.16454 -0.75575,0.2468 -1.19661,0.2468 -1.59621,0 -3.07948,-0.0823 -4.45418,-0.2468 -1.76126,-0.11042 -3.10772,-0.16454 -4.04156,-0.16454 -0.9903,0 -2.14348,0.0541 -3.46388,0.16454 -1.15535,0.16454 -2.47575,0.2468 -3.95903,0.2468 -0.3844,0 -0.77096,-0.0823 -1.15536,-0.2468 z m 25.11587,-25.69571 c 1.5115,-0.95907 2.83191,-2.49401 3.95903,-4.60483 1.12711,-2.10866 1.69176,-4.81051 1.69176,-8.09906 0,-5.42751 -1.07282,-9.14039 -3.21631,-11.14296 -2.14348,-2.00041 -4.42811,-3.00062 -6.84523,-3.00062 -1.15535,0 -2.3802,0.24681 -3.6702,0.74042 -1.29216,0.4936 -2.3802,1.06948 -3.25757,1.72762 -0.87955,0.65815 -1.3204,1.20588 -1.3204,1.64536 l -0.0825,8.38699 c -0.0543,1.31628 -0.0825,2.79494 -0.0825,4.4403 0,1.86401 0.42565,3.67391 1.27913,5.42751 0.85131,1.75577 1.9654,3.1803 3.3401,4.27577 1.37469,1.09762 2.77545,1.64535 4.2066,1.64535 1.15536,0 2.48662,-0.47846 4.0003,-1.43968 z"
         style="fill:none;stroke:#000000;stroke-width:0.5;stroke-dasharray:none;stroke-opacity:1"
         transform="translate(-515.649,-696)" />
    </g>
  </g>
</svg>
