<?xml version="1.0" encoding="UTF-8" standalone="no"?>
<!--Generator: Apple Native CoreSVG 341-->

<svg
   version="1.1"
   viewBox="0 0 3300 2200"
   id="svg33"
   xmlns="http://www.w3.org/2000/svg"
   xmlns:svg="http://www.w3.org/2000/svg">
  <defs
     id="defs33" />
  <!--glyph: "", point size: 100.0, font version: "20.0d10e1", template writer version: "138.0.0"-->
  <style
     id="style1">.SFSymbolsPreviewWireframe {fill:none;opacity:1.0;stroke:black;stroke-width:0.5}
</style>
  <g
     id="Notes"
     transform="translate(0.6610577,-2.8094952)">
    <rect
       height="2200"
       id="artboard"
       style="opacity:1;fill:#ffffff"
       width="3300"
       x="0"
       y="0" />
    <line
       style="opacity:1;fill:none;stroke:#000000;stroke-width:0.5"
       x1="263"
       x2="3036"
       y1="292"
       y2="292"
       id="line1" />
    <text
       style="font-weight:bold;font-size:13px;font-family:sans-serif;fill:#000000;stroke:none"
       transform="translate(263,322)"
       id="text1">Weight/Scale Variations</text>
    <text
       style="font-size:13px;font-family:sans-serif;text-anchor:middle;fill:#000000;stroke:none"
       transform="translate(559.711,322)"
       id="text2">Ultralight</text>
    <text
       style="font-size:13px;font-family:sans-serif;text-anchor:middle;fill:#000000;stroke:none"
       transform="translate(856.422,322)"
       id="text3">Thin</text>
    <text
       style="font-size:13px;font-family:sans-serif;text-anchor:middle;fill:#000000;stroke:none"
       transform="translate(1153.13,322)"
       id="text4">Light</text>
    <text
       style="font-size:13px;font-family:sans-serif;text-anchor:middle;fill:#000000;stroke:none"
       transform="translate(1449.84,322)"
       id="text5">Regular</text>
    <text
       style="font-size:13px;font-family:sans-serif;text-anchor:middle;fill:#000000;stroke:none"
       transform="translate(1746.56,322)"
       id="text6">Medium</text>
    <text
       style="font-size:13px;font-family:sans-serif;text-anchor:middle;fill:#000000;stroke:none"
       transform="translate(2043.27,322)"
       id="text7">Semibold</text>
    <text
       style="font-size:13px;font-family:sans-serif;text-anchor:middle;fill:#000000;stroke:none"
       transform="translate(2339.98,322)"
       id="text8">Bold</text>
    <text
       style="font-size:13px;font-family:sans-serif;text-anchor:middle;fill:#000000;stroke:none"
       transform="translate(2636.69,322)"
       id="text9">Heavy</text>
    <text
       style="font-size:13px;font-family:sans-serif;text-anchor:middle;fill:#000000;stroke:none"
       transform="translate(2933.4,322)"
       id="text10">Black</text>
    <line
       style="opacity:1;fill:none;stroke:#000000;stroke-width:0.5"
       x1="263"
       x2="3036"
       y1="1903"
       y2="1903"
       id="line10" />
    <g
       transform="matrix(0.2,0,0,0.2,263,1933)"
       id="g10">
      <path
         d="m 46.2402,4.15039 c 21.7773,0 39.4531,-17.627 39.4531,-39.4043 0,-21.7773 -17.6758,-39.4043 -39.4531,-39.4043 -21.7285,0 -39.4043,17.627 -39.4043,39.4043 0,21.7773 17.6758,39.4043 39.4043,39.4043 z m 0,-7.42188 c -17.6758,0 -31.9336,-14.3066 -31.9336,-31.9824 0,-17.6758 14.2578,-31.9824 31.9336,-31.9824 17.6758,0 31.9824,14.3066 31.9824,31.9824 0,17.6758 -14.3066,31.9824 -31.9824,31.9824 z m -17.9688,-31.9824 c 0,2.14844 1.51367,3.61328 3.75977,3.61328 h 10.498 v 10.5957 c 0,2.19727 1.46484,3.71094 3.61328,3.71094 2.24609,0 3.71094,-1.51367 3.71094,-3.71094 v -10.5957 h 10.5957 c 2.19727,0 3.71094,-1.46484 3.71094,-3.61328 0,-2.19727 -1.51367,-3.71094 -3.71094,-3.71094 h -10.5957 v -10.5469 c 0,-2.24609 -1.46484,-3.75977 -3.71094,-3.75977 -2.14844,0 -3.61328,1.51367 -3.61328,3.75977 v 10.5469 h -10.498 c -2.24609,0 -3.75977,1.51367 -3.75977,3.71094 z"
         id="path10" />
    </g>
    <g
       transform="matrix(0.2,0,0,0.2,281.506,1933)"
       id="g11">
      <path
         d="m 58.5449,14.5508 c 27.4902,0 49.8047,-22.3145 49.8047,-49.8047 0,-27.4902 -22.3145,-49.8047 -49.8047,-49.8047 -27.4902,0 -49.8047,22.3145 -49.8047,49.8047 0,27.4902 22.3145,49.8047 49.8047,49.8047 z m 0,-8.30078 c -22.9492,0 -41.5039,-18.5547 -41.5039,-41.5039 0,-22.9492 18.5547,-41.5039 41.5039,-41.5039 22.9492,0 41.5039,18.5547 41.5039,41.5039 0,22.9492 -18.5547,41.5039 -41.5039,41.5039 z m -22.6562,-41.5039 c 0,2.39258 1.66016,4.00391 4.15039,4.00391 h 14.3555 v 14.4043 c 0,2.44141 1.66016,4.15039 4.05273,4.15039 2.44141,0 4.15039,-1.66016 4.15039,-4.15039 v -14.4043 h 14.4043 c 2.44141,0 4.15039,-1.61133 4.15039,-4.00391 0,-2.44141 -1.70898,-4.15039 -4.15039,-4.15039 h -14.4043 v -14.3555 c 0,-2.49023 -1.70898,-4.19922 -4.15039,-4.19922 -2.39258,0 -4.05273,1.70898 -4.05273,4.19922 v 14.3555 h -14.3555 c -2.49023,0 -4.15039,1.70898 -4.15039,4.15039 z"
         id="path11" />
    </g>
    <g
       transform="matrix(0.2,0,0,0.2,304.924,1933)"
       id="g12">
      <path
         d="m 74.8535,28.3203 c 35.1074,0 63.623,-28.4668 63.623,-63.5742 0,-35.1074 -28.5156,-63.623 -63.623,-63.623 -35.1074,0 -63.5742,28.5156 -63.5742,63.623 0,35.1074 28.4668,63.5742 63.5742,63.5742 z m 0,-9.08203 c -30.127,0 -54.4922,-24.3652 -54.4922,-54.4922 0,-30.127 24.3652,-54.4922 54.4922,-54.4922 30.127,0 54.4922,24.3652 54.4922,54.4922 0,30.127 -24.3652,54.4922 -54.4922,54.4922 z m -28.8574,-54.4922 c 0,2.58789 1.85547,4.39453 4.58984,4.39453 h 19.7266 v 19.7754 c 0,2.68555 1.85547,4.58984 4.44336,4.58984 2.68555,0 4.54102,-1.85547 4.54102,-4.58984 v -19.7754 h 19.7754 c 2.68555,0 4.58984,-1.80664 4.58984,-4.39453 0,-2.73438 -1.85547,-4.58984 -4.58984,-4.58984 h -19.7754 v -19.7266 c 0,-2.73438 -1.85547,-4.63867 -4.54102,-4.63867 -2.58789,0 -4.44336,1.9043 -4.44336,4.63867 v 19.7266 h -19.7266 c -2.73438,0 -4.58984,1.85547 -4.58984,4.58984 z"
         id="path12" />
    </g>
    <text
       style="font-weight:bold;font-size:13px;font-family:sans-serif;fill:#000000;stroke:none"
       transform="translate(263,1953)"
       id="text12">Design Variations</text>
    <text
       style="font-size:13px;font-family:sans-serif;fill:#000000;stroke:none"
       transform="translate(263,1971)"
       id="text13">Symbols are supported in up to nine weights and three scales.</text>
    <text
       style="font-size:13px;font-family:sans-serif;fill:#000000;stroke:none"
       transform="translate(263,1989)"
       id="text14">For optimal layout with text and other symbols, vertically align</text>
    <text
       style="font-size:13px;font-family:sans-serif;fill:#000000;stroke:none"
       transform="translate(263,2007)"
       id="text15">symbols with the adjacent text.</text>
    <line
       style="opacity:1;fill:none;stroke:#00aeef;stroke-width:0.5"
       x1="776"
       x2="776"
       y1="1919"
       y2="1933"
       id="line15" />
    <g
       transform="matrix(0.2,0,0,0.2,776,1933)"
       id="g15">
      <path
         d="m 16.5527,0.78125 c 2.58789,0 3.85742,-0.976562 4.78516,-3.71094 l 6.29883,-17.2363 h 28.8086 l 6.29883,17.2363 c 0.927734,2.73438 2.19727,3.71094 4.73633,3.71094 2.58789,0 4.24805,-1.5625 4.24805,-4.00391 0,-0.830078 -0.146484,-1.61133 -0.537109,-2.63672 l -22.9004,-60.9863 c -1.12305,-2.97852 -3.125,-4.49219 -6.25,-4.49219 -3.02734,0 -5.07812,1.46484 -6.15234,4.44336 l -22.9004,61.084 c -0.390625,1.02539 -0.537109,1.80664 -0.537109,2.63672 0,2.44141 1.5625,3.95508 4.10156,3.95508 z m 13.4766,-28.3691 11.8652,-32.8613 h 0.244141 l 11.8652,32.8613 z"
         id="path15" />
    </g>
    <line
       style="opacity:1;fill:none;stroke:#00aeef;stroke-width:0.5"
       x1="792.836"
       x2="792.836"
       y1="1919"
       y2="1933"
       id="line16" />
    <text
       style="font-weight:bold;font-size:13px;font-family:sans-serif;fill:#000000;stroke:none"
       transform="translate(776,1953)"
       id="text16">Margins</text>
    <text
       style="font-size:13px;font-family:sans-serif;fill:#000000;stroke:none"
       transform="translate(776,1971)"
       id="text17">Leading and trailing margins on the left and right side of each symbol</text>
    <text
       style="font-size:13px;font-family:sans-serif;fill:#000000;stroke:none"
       transform="translate(776,1989)"
       id="text18">can be adjusted by modifying the x-location of the margin guidelines.</text>
    <text
       style="font-size:13px;font-family:sans-serif;fill:#000000;stroke:none"
       transform="translate(776,2007)"
       id="text19">Modifications are automatically applied proportionally to all</text>
    <text
       style="font-size:13px;font-family:sans-serif;fill:#000000;stroke:none"
       transform="translate(776,2025)"
       id="text20">scales and weights.</text>
    <g
       transform="matrix(0.2,0,0,0.2,1289,1933)"
       id="g20">
      <path
         d="m 14.209,9.32617 8.49609,8.54492 c 4.29688,4.3457 9.22852,4.05273 13.8672,-1.07422 l 53.4668,-58.9355 -4.83398,-4.88281 -53.0762,58.3984 c -1.75781,2.00195 -3.41797,2.49023 -5.76172,0.146484 l -5.85938,-5.81055 c -2.34375,-2.29492 -1.80664,-4.00391 0.195312,-5.81055 l 57.373,-54.0039 -4.88281,-4.83398 -57.959,54.4434 c -4.93164,4.58984 -5.32227,9.47266 -1.02539,13.8184 z m 32.0801,-90.9668 c -2.09961,2.05078 -2.24609,4.93164 -1.07422,6.88477 1.17188,1.80664 3.4668,2.97852 6.68945,2.14844 7.32422,-1.70898 14.9414,-2.00195 22.0703,2.68555 l -2.92969,7.27539 c -1.70898,4.15039 -0.830078,7.08008 1.85547,9.81445 l 11.4746,11.5723 c 2.44141,2.44141 4.49219,2.53906 7.32422,2.05078 l 5.32227,-0.976562 3.32031,3.36914 -0.19531,2.7832 c -0.195314,2.49023 0.43945,4.39453 2.88086,6.78711 l 3.80859,3.71094 c 2.39258,2.39258 5.46875,2.53906 7.8125,0.195312 l 14.5508,-14.5996 c 2.34375,-2.34375 2.24609,-5.32227 -0.14649,-7.71484 l -3.85742,-3.80859 c -2.39258,-2.39258 -4.24805,-3.17383 -6.64062,-2.97852 l -2.88086,0.244141 -3.22266,-3.17383 1.2207,-5.61523 c 0.63477,-2.83203 -0.14648,-5.0293 -3.07617,-7.95898 l -10.986296,-10.9375 c -16.6992,-16.6016 -38.8672,-16.2109 -53.3203,-1.75781 z m 7.4707,1.85547 c 12.1582,-8.88672 28.6133,-7.37305 39.7461,3.75977 l 12.1582,12.0605 c 1.17188,1.17188 1.36719,2.09961 1.02539,3.80859 l -1.61133,7.42188 7.51953,7.42188 4.93164,-0.292969 c 1.26953,-0.04883 1.66016,0.04883 2.63672,1.02539 l 2.88086,2.88086 -12.207,12.207 -2.88086,-2.88086 c -0.97656,-0.976562 -1.12305,-1.36719 -1.07422,-2.68555 l 0.3418,-4.88281 -7.470703,-7.42188 -7.61719,1.26953 c -1.61133,0.341797 -2.34375,0.195312 -3.56445,-0.976562 l -10.0098,-10.0098 c -1.26953,-1.17188 -1.41602,-2.00195 -0.634766,-3.85742 l 4.39453,-10.4492 c -7.8125,-7.27539 -17.9688,-10.4004 -28.125,-7.42188 -0.78125,0.195312 -1.07422,-0.439453 -0.439453,-0.976562 z"
         id="path20" />
    </g>
    <text
       style="font-weight:bold;font-size:13px;font-family:sans-serif;fill:#000000;stroke:none"
       transform="translate(1289,1953)"
       id="text21">Exporting</text>
    <text
       style="font-size:13px;font-family:sans-serif;fill:#000000;stroke:none"
       transform="translate(1289,1971)"
       id="text22">Symbols should be outlined when exporting to ensure the</text>
    <text
       style="font-size:13px;font-family:sans-serif;fill:#000000;stroke:none"
       transform="translate(1289,1989)"
       id="text23">design is preserved when submitting to Xcode.</text>
    <text
       id="template-version"
       style="font-size:13px;font-family:sans-serif;text-anchor:end;fill:#000000;stroke:none"
       transform="translate(3036,1933)">Template v.6.0</text>
    <text
       style="font-size:13px;font-family:sans-serif;text-anchor:end;fill:#000000;stroke:none"
       transform="translate(3036,1951)"
       id="text24">Requires Xcode 16 or greater</text>
    <text
       id="descriptive-name"
       style="font-size:13px;font-family:sans-serif;text-anchor:end;fill:#000000;stroke:none"
       transform="translate(3036,1969)">Generated from custom.circle</text>
    <text
       style="font-size:13px;font-family:sans-serif;text-anchor:end;fill:#000000;stroke:none"
       transform="translate(3036,1987)"
       id="text25">Typeset at 100.0 points</text>
    <text
       style="font-size:13px;font-family:sans-serif;fill:#000000;stroke:none"
       transform="translate(263,726)"
       id="text26">Small</text>
    <text
       style="font-size:13px;font-family:sans-serif;fill:#000000;stroke:none"
       transform="translate(263,1156)"
       id="text27">Medium</text>
    <text
       style="font-size:13px;font-family:sans-serif;fill:#000000;stroke:none"
       transform="translate(263,1586)"
       id="text28">Large</text>
  </g>
  <g
     id="Guides">
    <g
       id="H-reference"
       style="fill:#27AAE1;stroke:none;"
       transform="matrix(1 0 0 1 339 696)">
      <path
         d="M0.993654 0L3.63775 0L29.3281-67.1323L30.0303-67.1323L30.0303-70.459L28.1226-70.459ZM11.6885-24.4799L46.9815-24.4799L46.2315-26.7285L12.4385-26.7285ZM55.1196 0L57.7637 0L30.6382-70.459L29.4326-70.459L29.4326-67.1323Z"
         id="path28" />
    </g>
    <line
       id="Baseline-S"
       style="fill:none;stroke:#27AAE1;opacity:1;stroke-width:0.5;"
       x1="263"
       x2="3036"
       y1="696"
       y2="696" />
    <line
       id="Capline-S"
       style="fill:none;stroke:#27AAE1;opacity:1;stroke-width:0.5;"
       x1="263"
       x2="3036"
       y1="625.541"
       y2="625.541" />
    <g
       id="g29"
       style="fill:#27AAE1;stroke:none;"
       transform="matrix(1 0 0 1 339 1126)">
      <path
         d="M0.993654 0L3.63775 0L29.3281-67.1323L30.0303-67.1323L30.0303-70.459L28.1226-70.459ZM11.6885-24.4799L46.9815-24.4799L46.2315-26.7285L12.4385-26.7285ZM55.1196 0L57.7637 0L30.6382-70.459L29.4326-70.459L29.4326-67.1323Z"
         id="path29" />
    </g>
    <line
       id="Baseline-M"
       style="fill:none;stroke:#27AAE1;opacity:1;stroke-width:0.5;"
       x1="263"
       x2="3036"
       y1="1126"
       y2="1126" />
    <line
       id="Capline-M"
       style="fill:none;stroke:#27AAE1;opacity:1;stroke-width:0.5;"
       x1="263"
       x2="3036"
       y1="1055.54"
       y2="1055.54" />
    <g
       id="g30"
       style="fill:#27AAE1;stroke:none;"
       transform="matrix(1 0 0 1 339 1556)">
      <path
         d="M0.993654 0L3.63775 0L29.3281-67.1323L30.0303-67.1323L30.0303-70.459L28.1226-70.459ZM11.6885-24.4799L46.9815-24.4799L46.2315-26.7285L12.4385-26.7285ZM55.1196 0L57.7637 0L30.6382-70.459L29.4326-70.459L29.4326-67.1323Z"
         id="path30" />
    </g>
    <line
       id="Baseline-L"
       style="fill:none;stroke:#27AAE1;opacity:1;stroke-width:0.5;"
       x1="263"
       x2="3036"
       y1="1556"
       y2="1556" />
    <line
       id="Capline-L"
       style="fill:none;stroke:#27AAE1;opacity:1;stroke-width:0.5;"
       x1="263"
       x2="3036"
       y1="1485.54"
       y2="1485.54" />
    <line
       id="right-margin-Black-S"
       style="fill:none;stroke:#00AEEF;stroke-width:0.5;opacity:1.0;"
       x1="2982.23"
       x2="2982.23"
       y1="600.785"
       y2="720.121" />
    <line
       id="left-margin-Black-S"
       style="fill:none;stroke:#00AEEF;stroke-width:0.5;opacity:1.0;"
       x1="2884.57"
       x2="2884.57"
       y1="600.785"
       y2="720.121" />
    <line
       id="right-margin-Regular-S"
       style="fill:none;stroke:#00AEEF;stroke-width:0.5;opacity:1.0;"
       x1="1496.11"
       x2="1496.11"
       y1="600.785"
       y2="720.121" />
    <line
       id="left-margin-Regular-S"
       style="fill:none;stroke:#00AEEF;stroke-width:0.5;opacity:1.0;"
       x1="1403.58"
       x2="1403.58"
       y1="600.785"
       y2="720.121" />
    <line
       id="right-margin-Ultralight-S"
       style="fill:none;stroke:#00AEEF;stroke-width:0.5;opacity:1.0;"
       x1="603.773"
       x2="603.773"
       y1="600.785"
       y2="720.121" />
    <line
       id="left-margin-Ultralight-S"
       style="fill:none;stroke:#00AEEF;stroke-width:0.5;opacity:1.0;"
       x1="515.649"
       x2="515.649"
       y1="600.785"
       y2="720.121" />
  </g>
  <g
     id="Symbols">
    <g
       id="Black-S"
       transform="matrix(1 0 0 1 2884.57 696)">
      <path
         class="cls-1"
         d="m 51.715828,-44.698057 28.909212,5.043651 4.170156,3.12059 c 0.368718,0.274737 0.570561,0.680932 0.570561,1.138815 0,0.213684 -0.04677,0.410926 -0.13148,0.594073 l -34.645541,-6.04394 -10.120021,5.172792 v -4.480126 l 7.281245,-3.721667 -7.281245,-18.30557 v -5.825558 c 0,-0.474316 0.387425,-0.859391 0.864026,-0.859391 0.180798,0 0.345121,0.05633 0.50243,0.173751 l 0.481384,0.359268 z m -36.303337,17.349891 -2.270447,4.529434 c -0.183136,0.363955 -0.194828,0.777208 -0.05633,1.141153 l 18.836066,-9.627069 v -4.480126 l -16.50918,8.438967 v 0 z M 41.165973,5.9474697 88.385437,-29.468457 c 1.883022,-1.413542 2.963135,-3.573787 2.963135,-5.926544 0,-2.352767 -1.080113,-4.51535 -2.963135,-5.926532 L 42.678151,-75.603354 c -1.293753,-0.969751 -2.829316,-1.483979 -4.437792,-1.483979 -0.570668,0 -1.145799,0.06579 -1.704775,0.19723 -2.143643,0.504821 -3.937595,1.923061 -4.926192,3.890774 L 7.7931408,-25.502591 c -1.4369257,2.864657 -0.8758243,6.311619 1.3971727,8.572828 L 31.496725,5.2688762 c 1.387714,1.3830259 3.249797,2.1437915 5.238471,2.1437915 1.620168,0 3.153498,-0.5071806 4.433222,-1.4675258 v 0 z m 2.207204,-76.6926577 42.95992,32.15917 c 1.014425,0.760766 1.596678,1.92306 1.596678,3.191017 0,1.267968 -0.582253,2.430263 -1.596678,3.191029 L 43.375622,0.01390083 c -0.601172,0.4508368 -1.305658,0.6879788 -2.042881,0.6879788 -1.89025,0 -3.42815,-1.535636 -3.42815,-3.42348303 V -68.007346 c 0,-1.887857 1.5379,-3.423493 3.42815,-3.423493 0.734991,0 1.43937,0.237152 2.040436,0.685651 z m -8.887383,14.088414 v 51.8524316 c 0,1.887847 -1.540345,3.4235043 -3.435165,3.4235043 -0.896976,0 -1.746972,-0.3545706 -2.395018,-1.0002887 L 11.601593,-19.352978 c -1.223178,-1.21865 -1.526209,-3.073621 -0.751253,-4.616315 l 17.159457,-34.223128 c 0.594158,-1.183414 1.725927,-1.890196 3.02914,-1.890196 1.692977,0 3.446857,1.279702 3.446857,3.423494 v 0 z"
         id="path36"
         style="fill:none;stroke:#000000;stroke-width:0.500001;stroke-dasharray:none;stroke-opacity:1" />
    </g>
    <g
       id="Regular-S"
       transform="translate(2884.4248,696)">
      <path
         class="cls-1"
         d="m -1431.5409,-44.14048 27.1986,4.74521 3.9234,2.93594 c 0.3469,0.25848 0.5368,0.64064 0.5368,1.07143 0,0.20104 -0.044,0.38661 -0.1237,0.55892 l -32.5955,-5.68631 -9.5212,4.86671 v -4.21503 l 6.8504,-3.50145 -6.8504,-17.2224 v -5.48085 c 0,-0.44625 0.3645,-0.80854 0.8129,-0.80854 0.1701,0 0.3247,0.053 0.4727,0.16347 l 0.4529,0.33801 z m -34.1552,16.32327 -2.1361,4.26142 c -0.1723,0.34242 -0.1833,0.73122 -0.053,1.07363 l 17.7215,-9.05742 v -4.21503 l -15.5323,7.93962 v 0 z m 24.2296,31.32548 44.4254,-33.32031 c 1.7716,-1.3299 2.7878,-3.36232 2.7878,-5.57586 0,-2.21355 -1.0162,-4.24817 -2.7878,-5.57585 l -43.0027,-32.25331 c -1.2172,-0.91237 -2.6619,-1.39617 -4.1752,-1.39617 -0.5369,0 -1.078,0.0619 -1.6039,0.18556 -2.0168,0.47495 -3.7046,1.80927 -4.6347,3.66055 l -22.407,44.68628 c -1.3519,2.69515 -0.824,5.93815 1.3145,8.06556 l 20.9865,20.88511 c 1.3056,1.30119 3.0575,2.01694 4.9285,2.01694 1.5243,0 2.9669,-0.47717 4.1709,-1.38069 v 0 z m 2.0766,-72.15463 40.4179,30.25626 c 0.9544,0.71575 1.5022,1.80927 1.5022,3.0022 0,1.19294 -0.5478,2.28646 -1.5022,3.00221 l -40.4156,30.31149 c -0.5656,0.42416 -1.2284,0.64727 -1.922,0.64727 -1.7784,0 -3.2253,-1.44477 -3.2253,-3.22091 v -61.42268 c 0,-1.77615 1.4469,-3.22092 3.2253,-3.22092 0.6915,0 1.3542,0.22312 1.9197,0.64508 z m -8.3615,13.25478 v 48.78424 c 0,1.77614 -1.4492,3.22093 -3.2319,3.22093 -0.8439,0 -1.6436,-0.33359 -2.2533,-0.9411 l -16.0449,-15.9676 c -1.1508,-1.14654 -1.4359,-2.89175 -0.7068,-4.34316 l 16.1441,-32.19809 c 0.559,-1.11339 1.6238,-1.77835 2.8499,-1.77835 1.5928,0 3.2429,1.20398 3.2429,3.22092 v 0 z"
         id="path34"
         style="fill:none;stroke:#000000;stroke-width:0.500001;stroke-dasharray:none;stroke-opacity:1" />
    </g>
    <g
       id="Ultralight-S"
       transform="translate(2003.0379,696)">
      <path
         class="cls-1"
         d="m -1441.4236,-44.073833 25.488,4.446769 3.6767,2.75129 c 0.325,0.242223 0.503,0.600348 0.503,1.004044 0,0.188396 -0.041,0.362295 -0.1159,0.523768 l -30.5455,-5.32868 -8.9224,4.560627 v -3.949933 l 6.4196,-3.281233 -6.4196,-16.13923 v -5.136143 c 0,-0.418184 0.3416,-0.757688 0.7618,-0.757688 0.1594,0 0.3043,0.04967 0.443,0.153189 l 0.4244,0.316751 z m -32.007,15.296649 -2.0018,3.993407 c -0.1615,0.320884 -0.1718,0.685231 -0.05,1.006106 l 16.607,-8.487771 v -3.949934 l -14.5554,7.440273 v 0 z m 22.7057,29.35532429 41.6313,-31.22469329 c 1.6602,-1.246258 2.6125,-3.150853 2.6125,-5.225177 0,-2.074333 -0.9523,-3.980989 -2.6125,-5.225167 l -40.2981,-30.2248 c -1.1406,-0.854988 -2.4945,-1.30836 -3.9126,-1.30836 -0.5031,0 -1.0102,0.05801 -1.503,0.173889 -1.89,0.445079 -3.4716,1.69548 -4.3432,3.430327 l -20.9978,41.875822 c -1.2669,2.525643 -0.7722,5.564681 1.2318,7.558292 l 19.6666,19.57158069 c 1.2235,1.21935411 2.8652,1.89008841 4.6186,1.89008841 1.4284,0 2.7803,-0.4471593 3.9085,-1.29385411 v 0 z m 1.946,-67.61660229 37.8759,28.35335 c 0.8943,0.670734 1.4077,1.69548 1.4077,2.813382 0,1.117913 -0.5134,2.142658 -1.4077,2.813392 l -37.8738,28.405107 c -0.53,0.3974833 -1.1511,0.6065612 -1.8011,0.6065612 -1.6665,0 -3.0224,-1.3539039 -3.0224,-3.018337 V -64.624625 c 0,-1.664442 1.3559,-3.018346 3.0224,-3.018346 0.648,0 1.269,0.209087 1.799,0.604509 z m -7.8356,12.421146 v 45.7160481 c 0,1.6644332 -1.3581,3.0183559 -3.0287,3.0183559 -0.7908,0 -1.5402,-0.3126095 -2.1116,-0.8819113 l -15.0357,-14.9633487 c -1.0785,-1.07443 -1.3456,-2.709879 -0.6624,-4.070005 l 15.1288,-30.173053 c 0.5238,-1.043365 1.5216,-1.666504 2.6706,-1.666504 1.4926,0 3.039,1.128258 3.039,3.018347 v 0 z"
         id="path35"
         style="fill:none;stroke:#000000;stroke-width:0.500001;stroke-dasharray:none;stroke-opacity:1" />
    </g>
  </g>
</svg>
